<svg width="33" height="33" viewBox="0 0 33 33" fill="none" xmlns="http://www.w3.org/2000/svg">
<path d="M17.7321 18.6589V18.1009C17.7321 17.4204 17.1806 16.8689 16.5006 16.8689C15.8201 16.8689 15.2686 17.4204 15.2686 18.1009V18.6589C15.2686 19.3394 15.8201 19.8909 16.5006 19.8909C17.1801 19.8909 17.7321 19.3394 17.7321 18.6589Z" fill="#F0145A"/>
<path d="M18.5769 19.3405C18.3039 20.234 17.4814 20.89 16.5004 20.89C15.5189 20.89 14.6964 20.234 14.4234 19.3405H5.93886C5.40336 19.3405 4.89736 19.216 4.44336 19V24.6335C4.44336 25.7335 5.34336 26.6335 6.44336 26.6335H26.5564C27.6564 26.6335 28.5564 25.7335 28.5564 24.6335V19.0005C28.1019 19.2165 27.5964 19.341 27.0609 19.341H18.5769V19.3405Z" fill="#F0145A"/>
<path d="M26.9775 9.22451H22.177C21.887 7.41151 20.3165 6.02051 18.423 6.02051H14.5765C12.683 6.02051 11.113 7.41151 10.8225 9.22451H6.02247C4.87647 9.22451 3.93896 10.1245 3.93896 11.2245V15.841C3.93896 16.9455 4.83447 17.841 5.93897 17.841H14.329C14.3575 17.2655 14.6045 16.7485 14.995 16.3745C15.007 16.363 15.021 16.354 15.0335 16.343C15.12 16.2635 15.21 16.1885 15.3085 16.1235C15.3435 16.1 15.3835 16.084 15.42 16.063C15.501 16.0165 15.581 15.968 15.6685 15.932C15.737 15.9035 15.811 15.887 15.883 15.8655C15.945 15.847 16.004 15.8225 16.0685 15.8095C16.208 15.781 16.3525 15.766 16.5 15.766C16.648 15.766 16.792 15.7815 16.9315 15.8095C16.9955 15.8225 17.0545 15.847 17.1165 15.8655C17.1885 15.887 17.2625 15.9035 17.331 15.9325C17.418 15.9685 17.4975 16.0165 17.5785 16.063C17.6155 16.0845 17.6555 16.1005 17.691 16.124C17.7895 16.1885 17.879 16.2635 17.9655 16.343C17.978 16.3545 17.9925 16.3635 18.0045 16.3755C18.3955 16.7495 18.642 17.2665 18.6705 17.842H27.0605C28.165 17.842 29.0605 16.9465 29.0605 15.842V11.2255C29.061 10.1245 28.1235 9.22451 26.9775 9.22451ZM12.748 9.22451C13.003 8.45401 13.7215 7.89251 14.5765 7.89251H18.423C19.278 7.89251 19.9965 8.45401 20.2515 9.22451H12.748Z" fill="#F0145A"/>
</svg>
