<svg width="92" height="92" viewBox="0 0 92 92" fill="none" xmlns="http://www.w3.org/2000/svg">
<rect width="92" height="92" rx="24" fill="white"/>
<path d="M56.0059 70H37.0059V76H56.0059V70Z" fill="black"/>
<path d="M56.0059 70H37.0059V76H56.0059V70Z" fill="url(#paint0_linear_0_14533)"/>
<path d="M29.1723 16.4523L15.7373 29.8873L19.2728 33.4229L32.7079 19.9878L29.1723 16.4523Z" fill="black"/>
<path d="M29.1723 16.4523L15.7373 29.8873L19.2728 33.4229L32.7079 19.9878L29.1723 16.4523Z" fill="url(#paint1_linear_0_14533)"/>
<path d="M63.1127 16.3218L59.5771 19.8573L73.0122 33.2924L76.5477 29.7568L63.1127 16.3218Z" fill="black"/>
<path d="M63.1127 16.3218L59.5771 19.8573L73.0122 33.2924L76.5477 29.7568L63.1127 16.3218Z" fill="url(#paint2_linear_0_14533)"/>
<path d="M58.5564 23.7066L55.8651 23.5925C55.089 23.483 54.2981 23.5553 53.5548 23.8037C52.8115 24.0522 52.1361 24.47 51.5819 25.0242L46.0775 30.5286L40.3239 24.7751C39.8244 24.287 39.2011 23.9445 38.5214 23.7843C37.8416 23.6241 37.131 23.6524 36.4661 23.8661C35.8388 24.0569 35.1715 24.0736 34.5355 23.9146C33.8995 23.7555 33.3186 23.4266 32.8551 22.963L32.0012 22.1091L21.3945 32.7157L23.1225 34.4437L23.0085 37.1349C22.8989 37.911 22.9712 38.7019 23.2197 39.4452C23.4681 40.1885 23.8859 40.8639 24.4401 41.4181L34.0525 51.0305C34.181 49.7687 34.7856 48.6033 35.7432 47.7716L32.7482 44.7767L33.4553 44.0696L36.5836 47.1978C37.027 46.9454 37.5068 46.763 38.0059 46.6572V42.9633L36.2838 41.2411L36.9908 40.534L38.0059 41.5491V36.1992C37.9948 35.3149 38.3086 34.4573 38.8879 33.7891C39.4672 33.1209 40.2716 32.6886 41.1485 32.5742C41.4792 32.5421 41.8128 32.5572 42.1393 32.619L40.9098 31.3895L41.6169 30.6824L43.4131 32.4786C43.7312 31.8622 44.2233 31.3528 44.8283 31.0136C45.4333 30.6744 46.1246 30.5202 46.8165 30.5703C47.6513 30.6678 48.4258 31.0543 49.0057 31.6629C49.5855 32.2715 49.9342 33.0637 49.9913 33.9023C50.5596 33.6322 51.1894 33.5176 51.8165 33.5703C52.7075 33.677 53.5273 34.1108 54.1166 34.7876C54.7059 35.4645 55.0229 36.3361 55.0059 37.2334V40.6572C55.916 40.8473 56.7551 41.2872 57.4292 41.9275C58.1032 42.5678 58.5855 43.3833 58.822 44.2824L61.6105 41.4939L62.3176 42.201L59.0023 45.5163C59.0024 45.53 59.0059 45.5428 59.0059 45.5566V48.8767C59.9043 48.7827 60.7437 48.3845 61.3848 47.7482L68.225 40.9081C68.7131 40.4085 69.0556 39.7853 69.2158 39.1055C69.3759 38.4257 69.3476 37.7151 69.1339 37.0502C68.9431 36.423 68.9264 35.7557 69.0855 35.1196C69.2445 34.4836 69.5735 33.9027 70.0371 33.4391L70.8909 32.5853L60.2844 21.9786L58.5564 23.7066Z" fill="black"/>
<path d="M58.5564 23.7066L55.8651 23.5925C55.089 23.483 54.2981 23.5553 53.5548 23.8037C52.8115 24.0522 52.1361 24.47 51.5819 25.0242L46.0775 30.5286L40.3239 24.7751C39.8244 24.287 39.2011 23.9445 38.5214 23.7843C37.8416 23.6241 37.131 23.6524 36.4661 23.8661C35.8388 24.0569 35.1715 24.0736 34.5355 23.9146C33.8995 23.7555 33.3186 23.4266 32.8551 22.963L32.0012 22.1091L21.3945 32.7157L23.1225 34.4437L23.0085 37.1349C22.8989 37.911 22.9712 38.7019 23.2197 39.4452C23.4681 40.1885 23.8859 40.8639 24.4401 41.4181L34.0525 51.0305C34.181 49.7687 34.7856 48.6033 35.7432 47.7716L32.7482 44.7767L33.4553 44.0696L36.5836 47.1978C37.027 46.9454 37.5068 46.763 38.0059 46.6572V42.9633L36.2838 41.2411L36.9908 40.534L38.0059 41.5491V36.1992C37.9948 35.3149 38.3086 34.4573 38.8879 33.7891C39.4672 33.1209 40.2716 32.6886 41.1485 32.5742C41.4792 32.5421 41.8128 32.5572 42.1393 32.619L40.9098 31.3895L41.6169 30.6824L43.4131 32.4786C43.7312 31.8622 44.2233 31.3528 44.8283 31.0136C45.4333 30.6744 46.1246 30.5202 46.8165 30.5703C47.6513 30.6678 48.4258 31.0543 49.0057 31.6629C49.5855 32.2715 49.9342 33.0637 49.9913 33.9023C50.5596 33.6322 51.1894 33.5176 51.8165 33.5703C52.7075 33.677 53.5273 34.1108 54.1166 34.7876C54.7059 35.4645 55.0229 36.3361 55.0059 37.2334V40.6572C55.916 40.8473 56.7551 41.2872 57.4292 41.9275C58.1032 42.5678 58.5855 43.3833 58.822 44.2824L61.6105 41.4939L62.3176 42.201L59.0023 45.5163C59.0024 45.53 59.0059 45.5428 59.0059 45.5566V48.8767C59.9043 48.7827 60.7437 48.3845 61.3848 47.7482L68.225 40.9081C68.7131 40.4085 69.0556 39.7853 69.2158 39.1055C69.3759 38.4257 69.3476 37.7151 69.1339 37.0502C68.9431 36.423 68.9264 35.7557 69.0855 35.1196C69.2445 34.4836 69.5735 33.9027 70.0371 33.4391L70.8909 32.5853L60.2844 21.9786L58.5564 23.7066Z" fill="url(#paint3_linear_0_14533)"/>
<path d="M43.8802 35.6894C43.8042 35.0397 43.4757 34.4461 42.9657 34.0366C42.4557 33.6271 41.8051 33.4346 41.1544 33.5007C40.5232 33.5878 39.946 33.9038 39.5326 34.3887C39.1192 34.8735 38.8984 35.4934 38.9121 36.1304V47.4877C37.8512 47.4877 36.8338 47.9092 36.0837 48.6593C35.3335 49.4094 34.9121 50.4269 34.9121 51.4877V61.1612C34.9202 61.8596 35.1187 62.5425 35.4861 63.1364C35.8536 63.7303 36.376 64.2128 36.9973 64.5318C37.5757 64.8404 38.0594 65.3004 38.3967 65.8627C38.734 66.4249 38.9121 67.0682 38.9121 67.7238V68.9314H53.9121V66.4877L55.8958 64.6653C56.522 64.1941 57.0301 63.5837 57.38 62.8824C57.73 62.1811 57.9121 61.4081 57.9121 60.6243V45.4877C57.9121 44.4269 57.4907 43.4094 56.7405 42.6593C55.9904 41.9092 54.973 41.4877 53.9121 41.4877V37.1652C53.9291 36.5179 53.706 35.8873 53.2857 35.3948C52.8655 34.9022 52.2778 34.5826 51.636 34.4976C51.006 34.4419 50.3785 34.6278 49.8804 35.0175C49.3824 35.4073 49.0511 35.9718 48.9537 36.5966H49.4121V52.04H48.4121V36.5966H48.9121V34.1652C48.9291 33.5179 48.706 32.8873 48.2857 32.3948C47.8655 31.9022 47.2778 31.5826 46.636 31.4976C46.2902 31.4665 45.9417 31.5078 45.6128 31.6189C45.2838 31.7299 44.9816 31.9082 44.7254 32.1425C44.4691 32.3767 44.2645 32.6618 44.1245 32.9795C43.9845 33.2972 43.9121 33.6405 43.9121 33.9877V35.6894H44.4121V51.1327H43.4121V35.6894H43.8802ZM39.3113 56.04H38.3113V48.04H39.3113V56.04ZM53.4121 41.7982H54.4121V52.2416H53.4121V41.7982Z" fill="black"/>
<path d="M43.8802 35.6894C43.8042 35.0397 43.4757 34.4461 42.9657 34.0366C42.4557 33.6271 41.8051 33.4346 41.1544 33.5007C40.5232 33.5878 39.946 33.9038 39.5326 34.3887C39.1192 34.8735 38.8984 35.4934 38.9121 36.1304V47.4877C37.8512 47.4877 36.8338 47.9092 36.0837 48.6593C35.3335 49.4094 34.9121 50.4269 34.9121 51.4877V61.1612C34.9202 61.8596 35.1187 62.5425 35.4861 63.1364C35.8536 63.7303 36.376 64.2128 36.9973 64.5318C37.5757 64.8404 38.0594 65.3004 38.3967 65.8627C38.734 66.4249 38.9121 67.0682 38.9121 67.7238V68.9314H53.9121V66.4877L55.8958 64.6653C56.522 64.1941 57.0301 63.5837 57.38 62.8824C57.73 62.1811 57.9121 61.4081 57.9121 60.6243V45.4877C57.9121 44.4269 57.4907 43.4094 56.7405 42.6593C55.9904 41.9092 54.973 41.4877 53.9121 41.4877V37.1652C53.9291 36.5179 53.706 35.8873 53.2857 35.3948C52.8655 34.9022 52.2778 34.5826 51.636 34.4976C51.006 34.4419 50.3785 34.6278 49.8804 35.0175C49.3824 35.4073 49.0511 35.9718 48.9537 36.5966H49.4121V52.04H48.4121V36.5966H48.9121V34.1652C48.9291 33.5179 48.706 32.8873 48.2857 32.3948C47.8655 31.9022 47.2778 31.5826 46.636 31.4976C46.2902 31.4665 45.9417 31.5078 45.6128 31.6189C45.2838 31.7299 44.9816 31.9082 44.7254 32.1425C44.4691 32.3767 44.2645 32.6618 44.1245 32.9795C43.9845 33.2972 43.9121 33.6405 43.9121 33.9877V35.6894H44.4121V51.1327H43.4121V35.6894H43.8802ZM39.3113 56.04H38.3113V48.04H39.3113V56.04ZM53.4121 41.7982H54.4121V52.2416H53.4121V41.7982Z" fill="url(#paint4_linear_0_14533)"/>
<defs>
<linearGradient id="paint0_linear_0_14533" x1="46.5059" y1="70" x2="46.5059" y2="76" gradientUnits="userSpaceOnUse">
<stop stop-color="#EF8080"/>
<stop offset="1" stop-color="#F0145A"/>
</linearGradient>
<linearGradient id="paint1_linear_0_14533" x1="22.4548" y1="23.1698" x2="25.9904" y2="26.7053" gradientUnits="userSpaceOnUse">
<stop stop-color="#EF8080"/>
<stop offset="1" stop-color="#F0145A"/>
</linearGradient>
<linearGradient id="paint2_linear_0_14533" x1="61.3449" y1="18.0895" x2="74.78" y2="31.5246" gradientUnits="userSpaceOnUse">
<stop stop-color="#EF8080"/>
<stop offset="1" stop-color="#F0145A"/>
</linearGradient>
<linearGradient id="paint3_linear_0_14533" x1="46.1427" y1="21.9786" x2="46.1427" y2="51.0305" gradientUnits="userSpaceOnUse">
<stop stop-color="#EF8080"/>
<stop offset="1" stop-color="#F0145A"/>
</linearGradient>
<linearGradient id="paint4_linear_0_14533" x1="46.4121" y1="31.4875" x2="46.4121" y2="68.9314" gradientUnits="userSpaceOnUse">
<stop stop-color="#EF8080"/>
<stop offset="1" stop-color="#F0145A"/>
</linearGradient>
</defs>
</svg>
