<svg width="33" height="33" viewBox="0 0 33 33" fill="none" xmlns="http://www.w3.org/2000/svg">
<path d="M16.5971 3.87988C9.75258 3.87988 4.18408 9.44838 4.18408 16.2929C4.18408 23.1379 9.75258 28.7069 16.5971 28.7069C23.4416 28.7069 29.0101 23.1379 29.0101 16.2929C29.0106 9.44838 23.4421 3.87988 16.5971 3.87988ZM23.4556 15.3854V15.3859L19.8621 17.9859L21.2461 22.2159C21.2681 22.2819 21.2796 22.3524 21.2796 22.4244C21.2796 22.7939 20.9806 23.0939 20.6111 23.0939C20.4641 23.0939 20.3291 23.0469 20.2191 22.9674L16.5976 20.3479L12.9761 22.9674C12.8661 23.0469 12.7311 23.0939 12.5846 23.0939C12.2146 23.0939 11.9151 22.7944 11.9151 22.4244C11.9151 22.3519 11.9271 22.2819 11.9491 22.2159L13.3336 17.9859L9.74008 15.3859V15.3854C9.57208 15.2644 9.46308 15.0669 9.46308 14.8439C9.46308 14.4744 9.76208 14.1754 10.1321 14.1754H14.5806L15.9581 9.96488C16.0421 9.69138 16.2966 9.49238 16.5981 9.49238C16.8991 9.49238 17.1541 9.69138 17.2376 9.96488L18.6151 14.1754H23.0636C23.4331 14.1754 23.7326 14.4744 23.7326 14.8439C23.7321 15.0669 23.6231 15.2644 23.4556 15.3854Z" fill="#F0145A"/>
</svg>
